<?xml version="1.0" encoding="UTF-8" standalone="no"?>
<svg
   height="48"
   width="48"
   version="1.1"
   id="svg11"
   sodipodi:docname="icon_red.svg"
   inkscape:version="1.2.1 (9c6d41e4, 2022-07-14)"
   xmlns:inkscape="http://www.inkscape.org/namespaces/inkscape"
   xmlns:sodipodi="http://sodipodi.sourceforge.net/DTD/sodipodi-0.dtd"
   xmlns="http://www.w3.org/2000/svg"
   xmlns:svg="http://www.w3.org/2000/svg">
  <defs
     id="defs15" />
  <sodipodi:namedview
     id="namedview13"
     pagecolor="#505050"
     bordercolor="#eeeeee"
     borderopacity="1"
     inkscape:showpageshadow="0"
     inkscape:pageopacity="0"
     inkscape:pagecheckerboard="0"
     inkscape:deskcolor="#505050"
     showgrid="false"
     inkscape:zoom="6.0531286"
     inkscape:cx="16.933392"
     inkscape:cy="44.770237"
     inkscape:window-width="1680"
     inkscape:window-height="938"
     inkscape:window-x="0"
     inkscape:window-y="25"
     inkscape:window-maximized="1"
     inkscape:current-layer="svg11" />
  <path
     id="path9"
     d="M 11.650391 2 L 11.650391 5 L 39 5 L 39 41.5 L 42 41.5 L 42 5 C 42 4.2000008 41.699609 3.50039 41.099609 2.9003906 C 40.49961 2.3003912 39.799999 2 39 2 L 11.650391 2 z M 9 8 C 8.2000008 8 7.50039 8.3003912 6.9003906 8.9003906 C 6.3003912 9.50039 6 10.200001 6 11 L 6 46 L 21 39.650391 L 36.050781 46 L 36.050781 11 C 36.050781 10.200001 35.741666 9.50039 35.125 8.9003906 C 34.508334 8.3003912 33.799999 8 33 8 L 9 8 z M 16.298828 11.712891 L 25.685547 11.712891 L 25.685547 12.779297 L 32.369141 12.779297 L 32.369141 14.912109 L 30.912109 14.912109 L 30.912109 35.179688 C 30.912109 35.748583 30.698155 36.247158 30.271484 36.673828 C 29.844813 37.1005 29.348192 37.3125 28.779297 37.3125 L 13.205078 37.3125 C 12.636183 37.3125 12.137608 37.1005 11.710938 36.673828 C 11.284265 36.247158 11.072266 35.748583 11.072266 35.179688 L 11.072266 14.912109 L 9.6132812 14.912109 L 9.6132812 12.779297 L 16.298828 12.779297 L 16.298828 11.712891 z M 13.205078 14.912109 L 13.205078 35.179688 L 28.779297 35.179688 L 28.779297 14.912109 L 13.205078 14.912109 z M 16.759766 18.929688 L 20.992188 23.232422 L 25.257812 18.929688 L 26.929688 20.636719 L 22.699219 24.939453 L 26.929688 29.242188 L 25.257812 30.949219 L 20.992188 26.646484 L 16.759766 30.949219 L 15.054688 29.242188 L 19.320312 24.939453 L 15.054688 20.636719 L 16.759766 18.929688 z "
     style="fill:#d50000;fill-opacity:1" />
</svg>
